<mxfile host="app.diagrams.net" modified="2021-10-17T12:05:09.412Z" agent="5.0 (Macintosh; Intel Mac OS X 10_15_5) AppleWebKit/537.36 (KHTML, like Gecko) Chrome/92.0.4515.107 Safari/537.36" etag="P7NNm9mzNN3VQNAMF15V" version="14.9.4" type="github" pages="3">
  <diagram id="EZObkGS9QzQuCz9Ap30U" name="Page-1">
    <mxGraphModel dx="786" dy="514" grid="1" gridSize="10" guides="1" tooltips="1" connect="1" arrows="1" fold="1" page="1" pageScale="1" pageWidth="827" pageHeight="1169" math="0" shadow="0">
      <root>
        <mxCell id="0" />
        <mxCell id="1" parent="0" />
        <mxCell id="BvSqqA-Ns_7lZcnDzXu2-1" value="Passenger" style="swimlane;childLayout=stackLayout;horizontal=1;startSize=30;horizontalStack=0;rounded=1;fontSize=14;fontStyle=0;strokeWidth=2;resizeParent=0;resizeLast=1;shadow=0;dashed=0;align=center;" parent="1" vertex="1">
          <mxGeometry x="60" y="80" width="160" height="120" as="geometry" />
        </mxCell>
        <mxCell id="BvSqqA-Ns_7lZcnDzXu2-2" value="FirstName (string)&#xa;Lastname (string)" style="align=left;strokeColor=none;fillColor=none;spacingLeft=4;fontSize=12;verticalAlign=top;resizable=0;rotatable=0;part=1;" parent="BvSqqA-Ns_7lZcnDzXu2-1" vertex="1">
          <mxGeometry y="30" width="160" height="90" as="geometry" />
        </mxCell>
        <mxCell id="dGBfbwqMi1PYN0YnQ5q4-1" value="Ticket" style="swimlane;childLayout=stackLayout;horizontal=1;startSize=30;horizontalStack=0;rounded=1;fontSize=14;fontStyle=0;strokeWidth=2;resizeParent=0;resizeLast=1;shadow=0;dashed=0;align=center;" parent="1" vertex="1">
          <mxGeometry x="370" y="50" width="160" height="120" as="geometry" />
        </mxCell>
        <mxCell id="dGBfbwqMi1PYN0YnQ5q4-2" value="TicketNumber (string)&#xa;Price (float)&#xa;ConfirmationNumber (string)" style="align=left;strokeColor=none;fillColor=none;spacingLeft=4;fontSize=12;verticalAlign=top;resizable=0;rotatable=0;part=1;" parent="dGBfbwqMi1PYN0YnQ5q4-1" vertex="1">
          <mxGeometry y="30" width="160" height="90" as="geometry" />
        </mxCell>
        <mxCell id="az964jHSQw0N_HPgpGKJ-1" value="" style="edgeStyle=entityRelationEdgeStyle;fontSize=12;html=1;endArrow=ERmany;startArrow=ERone;entryX=0;entryY=0.5;entryDx=0;entryDy=0;startFill=0;endFill=0;" parent="1" target="dGBfbwqMi1PYN0YnQ5q4-2" edge="1">
          <mxGeometry width="100" height="100" relative="1" as="geometry">
            <mxPoint x="210" y="150" as="sourcePoint" />
            <mxPoint x="310" y="50" as="targetPoint" />
          </mxGeometry>
        </mxCell>
        <mxCell id="az964jHSQw0N_HPgpGKJ-2" value="Purchases" style="edgeLabel;html=1;align=center;verticalAlign=middle;resizable=0;points=[];" parent="az964jHSQw0N_HPgpGKJ-1" vertex="1" connectable="0">
          <mxGeometry x="-0.1532" y="4" relative="1" as="geometry">
            <mxPoint as="offset" />
          </mxGeometry>
        </mxCell>
        <mxCell id="az964jHSQw0N_HPgpGKJ-3" value="Flight" style="swimlane;childLayout=stackLayout;horizontal=1;startSize=30;horizontalStack=0;rounded=1;fontSize=14;fontStyle=0;strokeWidth=2;resizeParent=0;resizeLast=1;shadow=0;dashed=0;align=center;" parent="1" vertex="1">
          <mxGeometry x="510" y="250" width="230" height="160" as="geometry" />
        </mxCell>
        <mxCell id="az964jHSQw0N_HPgpGKJ-4" value="Number (string)&#xa;DepartureDateTime (dateTime)&#xa;ArrivalDateTime (dateTime)&#xa;DurationInMinutes (integer)&#xa;DistanceInMiles (integer)&#xa;DepartureAirportId (integer)&#xa;ArrivalAirportId (integer)" style="align=left;strokeColor=none;fillColor=none;spacingLeft=4;fontSize=12;verticalAlign=top;resizable=0;rotatable=0;part=1;" parent="az964jHSQw0N_HPgpGKJ-3" vertex="1">
          <mxGeometry y="30" width="230" height="130" as="geometry" />
        </mxCell>
        <mxCell id="az964jHSQw0N_HPgpGKJ-5" value="Airport" style="swimlane;childLayout=stackLayout;horizontal=1;startSize=30;horizontalStack=0;rounded=1;fontSize=14;fontStyle=0;strokeWidth=2;resizeParent=0;resizeLast=1;shadow=0;dashed=0;align=center;" parent="1" vertex="1">
          <mxGeometry x="140" y="410" width="160" height="120" as="geometry" />
        </mxCell>
        <mxCell id="az964jHSQw0N_HPgpGKJ-6" value="IATACode (string)&#xa;Name (string)&#xa;City (string)&#xa;State (string)" style="align=left;strokeColor=none;fillColor=none;spacingLeft=4;fontSize=12;verticalAlign=top;resizable=0;rotatable=0;part=1;" parent="az964jHSQw0N_HPgpGKJ-5" vertex="1">
          <mxGeometry y="30" width="160" height="90" as="geometry" />
        </mxCell>
        <mxCell id="az964jHSQw0N_HPgpGKJ-7" value="" style="edgeStyle=entityRelationEdgeStyle;fontSize=12;html=1;endArrow=ERone;startArrow=ERmany;entryX=0.5;entryY=0;entryDx=0;entryDy=0;exitX=1;exitY=0.5;exitDx=0;exitDy=0;startFill=0;endFill=0;" parent="1" source="dGBfbwqMi1PYN0YnQ5q4-2" target="az964jHSQw0N_HPgpGKJ-3" edge="1">
          <mxGeometry width="100" height="100" relative="1" as="geometry">
            <mxPoint x="220" y="180" as="sourcePoint" />
            <mxPoint x="320" y="80" as="targetPoint" />
          </mxGeometry>
        </mxCell>
        <mxCell id="az964jHSQw0N_HPgpGKJ-8" value="issued for" style="edgeLabel;html=1;align=center;verticalAlign=middle;resizable=0;points=[];" parent="az964jHSQw0N_HPgpGKJ-7" vertex="1" connectable="0">
          <mxGeometry x="-0.0989" y="1" relative="1" as="geometry">
            <mxPoint as="offset" />
          </mxGeometry>
        </mxCell>
        <mxCell id="az964jHSQw0N_HPgpGKJ-9" value="" style="edgeStyle=entityRelationEdgeStyle;fontSize=12;html=1;endArrow=ERoneToMany;startArrow=ERzeroToMany;entryX=0.5;entryY=1;entryDx=0;entryDy=0;exitX=1.019;exitY=0.433;exitDx=0;exitDy=0;exitPerimeter=0;" parent="1" source="az964jHSQw0N_HPgpGKJ-6" target="az964jHSQw0N_HPgpGKJ-4" edge="1">
          <mxGeometry width="100" height="100" relative="1" as="geometry">
            <mxPoint x="290" y="380" as="sourcePoint" />
            <mxPoint x="390" y="280" as="targetPoint" />
          </mxGeometry>
        </mxCell>
        <mxCell id="az964jHSQw0N_HPgpGKJ-10" value="Departs/Arrives at" style="edgeLabel;html=1;align=center;verticalAlign=middle;resizable=0;points=[];" parent="az964jHSQw0N_HPgpGKJ-9" vertex="1" connectable="0">
          <mxGeometry x="-0.0724" relative="1" as="geometry">
            <mxPoint as="offset" />
          </mxGeometry>
        </mxCell>
        <mxCell id="az964jHSQw0N_HPgpGKJ-11" value="Airline" style="swimlane;childLayout=stackLayout;horizontal=1;startSize=30;horizontalStack=0;rounded=1;fontSize=14;fontStyle=0;strokeWidth=2;resizeParent=0;resizeLast=1;shadow=0;dashed=0;align=center;" parent="1" vertex="1">
          <mxGeometry x="190" y="230" width="160" height="120" as="geometry" />
        </mxCell>
        <mxCell id="az964jHSQw0N_HPgpGKJ-12" value="Name (string)" style="align=left;strokeColor=none;fillColor=none;spacingLeft=4;fontSize=12;verticalAlign=top;resizable=0;rotatable=0;part=1;" parent="az964jHSQw0N_HPgpGKJ-11" vertex="1">
          <mxGeometry y="30" width="160" height="90" as="geometry" />
        </mxCell>
        <mxCell id="az964jHSQw0N_HPgpGKJ-13" value="" style="edgeStyle=entityRelationEdgeStyle;fontSize=12;html=1;endArrow=ERoneToMany;entryX=0;entryY=0.5;entryDx=0;entryDy=0;exitX=1;exitY=0.25;exitDx=0;exitDy=0;" parent="1" source="az964jHSQw0N_HPgpGKJ-12" target="az964jHSQw0N_HPgpGKJ-3" edge="1">
          <mxGeometry width="100" height="100" relative="1" as="geometry">
            <mxPoint x="350" y="340" as="sourcePoint" />
            <mxPoint x="450" y="240" as="targetPoint" />
          </mxGeometry>
        </mxCell>
        <mxCell id="az964jHSQw0N_HPgpGKJ-16" value="FlightClass" style="swimlane;childLayout=stackLayout;horizontal=1;startSize=30;horizontalStack=0;rounded=1;fontSize=14;fontStyle=0;strokeWidth=2;resizeParent=0;resizeLast=1;shadow=0;dashed=0;align=center;" parent="1" vertex="1">
          <mxGeometry x="600" y="20" width="160" height="120" as="geometry" />
        </mxCell>
        <mxCell id="az964jHSQw0N_HPgpGKJ-17" value="Name (string)" style="align=left;strokeColor=none;fillColor=none;spacingLeft=4;fontSize=12;verticalAlign=top;resizable=0;rotatable=0;part=1;" parent="az964jHSQw0N_HPgpGKJ-16" vertex="1">
          <mxGeometry y="30" width="160" height="90" as="geometry" />
        </mxCell>
        <mxCell id="az964jHSQw0N_HPgpGKJ-19" value="" style="edgeStyle=entityRelationEdgeStyle;fontSize=12;html=1;endArrow=ERoneToMany;entryX=1;entryY=0;entryDx=0;entryDy=0;exitX=0;exitY=0.5;exitDx=0;exitDy=0;" parent="1" source="az964jHSQw0N_HPgpGKJ-17" target="dGBfbwqMi1PYN0YnQ5q4-2" edge="1">
          <mxGeometry width="100" height="100" relative="1" as="geometry">
            <mxPoint x="350" y="300" as="sourcePoint" />
            <mxPoint x="450" y="200" as="targetPoint" />
          </mxGeometry>
        </mxCell>
      </root>
    </mxGraphModel>
  </diagram>
  <diagram id="7-kqGeH6-qy6gvltvWPt" name="Page-2">
    <mxGraphModel dx="786" dy="1683" grid="1" gridSize="10" guides="1" tooltips="1" connect="1" arrows="1" fold="1" page="1" pageScale="1" pageWidth="827" pageHeight="1169" math="0" shadow="0">
      <root>
        <mxCell id="GPeZBKfQg2-dEG_nfxHr-0" />
        <mxCell id="GPeZBKfQg2-dEG_nfxHr-1" parent="GPeZBKfQg2-dEG_nfxHr-0" />
        <mxCell id="GPeZBKfQg2-dEG_nfxHr-2" value="Customer" style="swimlane;childLayout=stackLayout;horizontal=1;startSize=30;horizontalStack=0;rounded=1;fontSize=14;fontStyle=0;strokeWidth=2;resizeParent=0;resizeLast=1;shadow=0;dashed=0;align=center;" parent="GPeZBKfQg2-dEG_nfxHr-1" vertex="1">
          <mxGeometry x="350" y="120" width="160" height="120" as="geometry" />
        </mxCell>
        <mxCell id="GPeZBKfQg2-dEG_nfxHr-3" value="FirstName (string)&#xa;LastName (string)&#xa;Email (string)&#xa;Phone (string)" style="align=left;strokeColor=none;fillColor=none;spacingLeft=4;fontSize=12;verticalAlign=top;resizable=0;rotatable=0;part=1;" parent="GPeZBKfQg2-dEG_nfxHr-2" vertex="1">
          <mxGeometry y="30" width="160" height="90" as="geometry" />
        </mxCell>
        <mxCell id="GPeZBKfQg2-dEG_nfxHr-4" value="Movie" style="swimlane;childLayout=stackLayout;horizontal=1;startSize=30;horizontalStack=0;rounded=1;fontSize=14;fontStyle=0;strokeWidth=2;resizeParent=0;resizeLast=1;shadow=0;dashed=0;align=center;" parent="GPeZBKfQg2-dEG_nfxHr-1" vertex="1">
          <mxGeometry x="50" y="120" width="160" height="120" as="geometry" />
        </mxCell>
        <mxCell id="GPeZBKfQg2-dEG_nfxHr-5" value="Barcode (string)&#xa;DailyRentalRate (Float)&#xa;NumberInStock (TINYINT)&#xa;" style="align=left;strokeColor=none;fillColor=none;spacingLeft=4;fontSize=12;verticalAlign=top;resizable=0;rotatable=0;part=1;" parent="GPeZBKfQg2-dEG_nfxHr-4" vertex="1">
          <mxGeometry y="30" width="160" height="90" as="geometry" />
        </mxCell>
        <mxCell id="GPeZBKfQg2-dEG_nfxHr-11" value="User" style="swimlane;childLayout=stackLayout;horizontal=1;startSize=30;horizontalStack=0;rounded=1;fontSize=14;fontStyle=0;strokeWidth=2;resizeParent=0;resizeLast=1;shadow=0;dashed=0;align=center;" parent="GPeZBKfQg2-dEG_nfxHr-1" vertex="1">
          <mxGeometry x="370" y="280" width="160" height="120" as="geometry" />
        </mxCell>
        <mxCell id="GPeZBKfQg2-dEG_nfxHr-12" value="Username (string)&#xa;Password (string)&#xa;" style="align=left;strokeColor=none;fillColor=none;spacingLeft=4;fontSize=12;verticalAlign=top;resizable=0;rotatable=0;part=1;" parent="GPeZBKfQg2-dEG_nfxHr-11" vertex="1">
          <mxGeometry y="30" width="160" height="90" as="geometry" />
        </mxCell>
        <mxCell id="GPeZBKfQg2-dEG_nfxHr-17" value="Rental" style="swimlane;childLayout=stackLayout;horizontal=1;startSize=30;horizontalStack=0;rounded=1;fontSize=14;fontStyle=0;strokeWidth=2;resizeParent=0;resizeLast=1;shadow=0;dashed=0;align=center;" parent="GPeZBKfQg2-dEG_nfxHr-1" vertex="1">
          <mxGeometry x="210" y="-50" width="160" height="120" as="geometry" />
        </mxCell>
        <mxCell id="GPeZBKfQg2-dEG_nfxHr-18" value="RentDate (date)&#xa;ReturnDate (date)" style="align=left;strokeColor=none;fillColor=none;spacingLeft=4;fontSize=12;verticalAlign=top;resizable=0;rotatable=0;part=1;" parent="GPeZBKfQg2-dEG_nfxHr-17" vertex="1">
          <mxGeometry y="30" width="160" height="90" as="geometry" />
        </mxCell>
        <mxCell id="GPeZBKfQg2-dEG_nfxHr-19" value="" style="edgeStyle=entityRelationEdgeStyle;fontSize=12;html=1;endArrow=ERmany;startArrow=ERone;exitX=0.413;exitY=-0.025;exitDx=0;exitDy=0;exitPerimeter=0;entryX=0;entryY=0.222;entryDx=0;entryDy=0;entryPerimeter=0;startFill=0;" parent="GPeZBKfQg2-dEG_nfxHr-1" source="GPeZBKfQg2-dEG_nfxHr-4" target="GPeZBKfQg2-dEG_nfxHr-18" edge="1">
          <mxGeometry width="100" height="100" relative="1" as="geometry">
            <mxPoint x="110" y="110" as="sourcePoint" />
            <mxPoint x="210" y="10" as="targetPoint" />
          </mxGeometry>
        </mxCell>
        <mxCell id="GPeZBKfQg2-dEG_nfxHr-20" value="" style="edgeStyle=entityRelationEdgeStyle;fontSize=12;html=1;endArrow=ERone;startArrow=ERmany;entryX=0.55;entryY=-0.042;entryDx=0;entryDy=0;entryPerimeter=0;exitX=1;exitY=0.25;exitDx=0;exitDy=0;endFill=0;" parent="GPeZBKfQg2-dEG_nfxHr-1" source="GPeZBKfQg2-dEG_nfxHr-18" target="GPeZBKfQg2-dEG_nfxHr-2" edge="1">
          <mxGeometry width="100" height="100" relative="1" as="geometry">
            <mxPoint x="370" y="100" as="sourcePoint" />
            <mxPoint x="470" as="targetPoint" />
          </mxGeometry>
        </mxCell>
        <mxCell id="GPeZBKfQg2-dEG_nfxHr-21" value="Coupon" style="swimlane;childLayout=stackLayout;horizontal=1;startSize=30;horizontalStack=0;rounded=1;fontSize=14;fontStyle=0;strokeWidth=2;resizeParent=0;resizeLast=1;shadow=0;dashed=0;align=center;" parent="GPeZBKfQg2-dEG_nfxHr-1" vertex="1">
          <mxGeometry x="380" y="-200" width="160" height="120" as="geometry" />
        </mxCell>
        <mxCell id="GPeZBKfQg2-dEG_nfxHr-22" value="Code&#xa;Description&#xa;Discount" style="align=left;strokeColor=none;fillColor=none;spacingLeft=4;fontSize=12;verticalAlign=top;resizable=0;rotatable=0;part=1;" parent="GPeZBKfQg2-dEG_nfxHr-21" vertex="1">
          <mxGeometry y="30" width="160" height="90" as="geometry" />
        </mxCell>
        <mxCell id="GPeZBKfQg2-dEG_nfxHr-23" value="" style="edgeStyle=entityRelationEdgeStyle;fontSize=12;html=1;endArrow=ERzeroToOne;startArrow=ERmany;exitX=0.394;exitY=-0.025;exitDx=0;exitDy=0;exitPerimeter=0;entryX=0;entryY=0.25;entryDx=0;entryDy=0;endFill=1;" parent="GPeZBKfQg2-dEG_nfxHr-1" source="GPeZBKfQg2-dEG_nfxHr-17" target="GPeZBKfQg2-dEG_nfxHr-22" edge="1">
          <mxGeometry width="100" height="100" relative="1" as="geometry">
            <mxPoint x="270" y="-40" as="sourcePoint" />
            <mxPoint x="370" y="-140" as="targetPoint" />
          </mxGeometry>
        </mxCell>
        <mxCell id="GPeZBKfQg2-dEG_nfxHr-25" value="applied to" style="text;html=1;align=center;verticalAlign=middle;resizable=0;points=[];autosize=1;strokeColor=none;" parent="GPeZBKfQg2-dEG_nfxHr-1" vertex="1">
          <mxGeometry x="285" y="-120" width="70" height="20" as="geometry" />
        </mxCell>
        <mxCell id="GPeZBKfQg2-dEG_nfxHr-26" value="Role" style="swimlane;childLayout=stackLayout;horizontal=1;startSize=30;horizontalStack=0;rounded=1;fontSize=14;fontStyle=0;strokeWidth=2;resizeParent=0;resizeLast=1;shadow=0;dashed=0;align=center;" parent="GPeZBKfQg2-dEG_nfxHr-1" vertex="1">
          <mxGeometry x="50" y="290" width="160" height="120" as="geometry" />
        </mxCell>
        <mxCell id="GPeZBKfQg2-dEG_nfxHr-27" value="Name (string)" style="align=left;strokeColor=none;fillColor=none;spacingLeft=4;fontSize=12;verticalAlign=top;resizable=0;rotatable=0;part=1;" parent="GPeZBKfQg2-dEG_nfxHr-26" vertex="1">
          <mxGeometry y="30" width="160" height="90" as="geometry" />
        </mxCell>
        <mxCell id="GPeZBKfQg2-dEG_nfxHr-28" value="" style="edgeStyle=entityRelationEdgeStyle;fontSize=12;html=1;endArrow=ERmany;entryX=0;entryY=0.75;entryDx=0;entryDy=0;endFill=0;startArrow=ERone;startFill=0;exitX=1;exitY=0.5;exitDx=0;exitDy=0;" parent="GPeZBKfQg2-dEG_nfxHr-1" source="GPeZBKfQg2-dEG_nfxHr-27" target="GPeZBKfQg2-dEG_nfxHr-11" edge="1">
          <mxGeometry width="100" height="100" relative="1" as="geometry">
            <mxPoint x="330" y="480" as="sourcePoint" />
            <mxPoint x="430" y="380" as="targetPoint" />
          </mxGeometry>
        </mxCell>
        <mxCell id="GPeZBKfQg2-dEG_nfxHr-30" value="belongs to" style="edgeLabel;html=1;align=center;verticalAlign=middle;resizable=0;points=[];" parent="GPeZBKfQg2-dEG_nfxHr-28" vertex="1" connectable="0">
          <mxGeometry x="0.02" y="2" relative="1" as="geometry">
            <mxPoint as="offset" />
          </mxGeometry>
        </mxCell>
      </root>
    </mxGraphModel>
  </diagram>
  <diagram id="gS4vJRMdSusDUU4DdeqX" name="Page-3">
    <mxGraphModel dx="786" dy="514" grid="1" gridSize="10" guides="1" tooltips="1" connect="1" arrows="1" fold="1" page="1" pageScale="1" pageWidth="827" pageHeight="1169" math="0" shadow="0">
      <root>
        <mxCell id="RjiiJJ7MbWjU7pn0RQHx-0" />
        <mxCell id="RjiiJJ7MbWjU7pn0RQHx-1" parent="RjiiJJ7MbWjU7pn0RQHx-0" />
        <mxCell id="RjiiJJ7MbWjU7pn0RQHx-32" value="Airport" style="whiteSpace=wrap;html=1;align=center;" parent="RjiiJJ7MbWjU7pn0RQHx-1" vertex="1">
          <mxGeometry x="80" y="140" width="100" height="40" as="geometry" />
        </mxCell>
        <mxCell id="RjiiJJ7MbWjU7pn0RQHx-33" value="name" style="ellipse;whiteSpace=wrap;html=1;align=center;" parent="RjiiJJ7MbWjU7pn0RQHx-1" vertex="1">
          <mxGeometry x="130" y="70" width="50" height="40" as="geometry" />
        </mxCell>
        <mxCell id="RjiiJJ7MbWjU7pn0RQHx-34" value="state" style="ellipse;whiteSpace=wrap;html=1;align=center;" parent="RjiiJJ7MbWjU7pn0RQHx-1" vertex="1">
          <mxGeometry x="190" y="50" width="50" height="40" as="geometry" />
        </mxCell>
        <mxCell id="RjiiJJ7MbWjU7pn0RQHx-35" value="city" style="ellipse;whiteSpace=wrap;html=1;align=center;" parent="RjiiJJ7MbWjU7pn0RQHx-1" vertex="1">
          <mxGeometry x="90" y="20" width="50" height="40" as="geometry" />
        </mxCell>
        <mxCell id="RjiiJJ7MbWjU7pn0RQHx-36" value="airportCode" style="ellipse;whiteSpace=wrap;html=1;align=center;fontStyle=4;" parent="RjiiJJ7MbWjU7pn0RQHx-1" vertex="1">
          <mxGeometry x="10" y="70" width="100" height="40" as="geometry" />
        </mxCell>
        <mxCell id="RjiiJJ7MbWjU7pn0RQHx-41" value="" style="endArrow=none;html=1;rounded=0;exitX=0.5;exitY=1;exitDx=0;exitDy=0;" parent="RjiiJJ7MbWjU7pn0RQHx-1" source="RjiiJJ7MbWjU7pn0RQHx-35" edge="1">
          <mxGeometry relative="1" as="geometry">
            <mxPoint x="110" y="60" as="sourcePoint" />
            <mxPoint x="121" y="140" as="targetPoint" />
          </mxGeometry>
        </mxCell>
        <mxCell id="RjiiJJ7MbWjU7pn0RQHx-42" value="" style="endArrow=none;html=1;rounded=0;exitX=0.6;exitY=1;exitDx=0;exitDy=0;exitPerimeter=0;entryX=0.25;entryY=0;entryDx=0;entryDy=0;" parent="RjiiJJ7MbWjU7pn0RQHx-1" source="RjiiJJ7MbWjU7pn0RQHx-36" target="RjiiJJ7MbWjU7pn0RQHx-32" edge="1">
          <mxGeometry relative="1" as="geometry">
            <mxPoint x="125" y="70" as="sourcePoint" />
            <mxPoint x="131" y="150" as="targetPoint" />
          </mxGeometry>
        </mxCell>
        <mxCell id="RjiiJJ7MbWjU7pn0RQHx-43" value="" style="endArrow=none;html=1;rounded=0;exitX=0.5;exitY=1;exitDx=0;exitDy=0;entryX=0.5;entryY=0;entryDx=0;entryDy=0;" parent="RjiiJJ7MbWjU7pn0RQHx-1" source="RjiiJJ7MbWjU7pn0RQHx-33" target="RjiiJJ7MbWjU7pn0RQHx-32" edge="1">
          <mxGeometry relative="1" as="geometry">
            <mxPoint x="135" y="80" as="sourcePoint" />
            <mxPoint x="141" y="160" as="targetPoint" />
          </mxGeometry>
        </mxCell>
        <mxCell id="RjiiJJ7MbWjU7pn0RQHx-44" value="" style="endArrow=none;html=1;rounded=0;exitX=0.28;exitY=1;exitDx=0;exitDy=0;exitPerimeter=0;entryX=0.75;entryY=0;entryDx=0;entryDy=0;" parent="RjiiJJ7MbWjU7pn0RQHx-1" source="RjiiJJ7MbWjU7pn0RQHx-34" target="RjiiJJ7MbWjU7pn0RQHx-32" edge="1">
          <mxGeometry relative="1" as="geometry">
            <mxPoint x="145" y="90" as="sourcePoint" />
            <mxPoint x="151" y="170" as="targetPoint" />
          </mxGeometry>
        </mxCell>
        <mxCell id="RjiiJJ7MbWjU7pn0RQHx-45" value="AirplaneType" style="whiteSpace=wrap;html=1;align=center;" parent="RjiiJJ7MbWjU7pn0RQHx-1" vertex="1">
          <mxGeometry x="90" y="400" width="100" height="40" as="geometry" />
        </mxCell>
        <mxCell id="RjiiJJ7MbWjU7pn0RQHx-46" value="max-seats" style="ellipse;whiteSpace=wrap;html=1;align=center;" parent="RjiiJJ7MbWjU7pn0RQHx-1" vertex="1">
          <mxGeometry x="140" y="330" width="50" height="40" as="geometry" />
        </mxCell>
        <mxCell id="RjiiJJ7MbWjU7pn0RQHx-48" value="company" style="ellipse;whiteSpace=wrap;html=1;align=center;" parent="RjiiJJ7MbWjU7pn0RQHx-1" vertex="1">
          <mxGeometry x="215" y="340" width="65" height="40" as="geometry" />
        </mxCell>
        <mxCell id="RjiiJJ7MbWjU7pn0RQHx-49" value="typeName" style="ellipse;whiteSpace=wrap;html=1;align=center;fontStyle=4;" parent="RjiiJJ7MbWjU7pn0RQHx-1" vertex="1">
          <mxGeometry x="20" y="330" width="100" height="40" as="geometry" />
        </mxCell>
        <mxCell id="RjiiJJ7MbWjU7pn0RQHx-50" value="" style="endArrow=none;html=1;rounded=0;exitX=0.5;exitY=1;exitDx=0;exitDy=0;" parent="RjiiJJ7MbWjU7pn0RQHx-1" source="RjiiJJ7MbWjU7pn0RQHx-48" target="RjiiJJ7MbWjU7pn0RQHx-45" edge="1">
          <mxGeometry relative="1" as="geometry">
            <mxPoint x="120" y="320" as="sourcePoint" />
            <mxPoint x="165" y="397" as="targetPoint" />
          </mxGeometry>
        </mxCell>
        <mxCell id="RjiiJJ7MbWjU7pn0RQHx-51" value="" style="endArrow=none;html=1;rounded=0;exitX=0.6;exitY=1;exitDx=0;exitDy=0;exitPerimeter=0;entryX=0.25;entryY=0;entryDx=0;entryDy=0;" parent="RjiiJJ7MbWjU7pn0RQHx-1" source="RjiiJJ7MbWjU7pn0RQHx-49" target="RjiiJJ7MbWjU7pn0RQHx-45" edge="1">
          <mxGeometry relative="1" as="geometry">
            <mxPoint x="135" y="330" as="sourcePoint" />
            <mxPoint x="141" y="410" as="targetPoint" />
          </mxGeometry>
        </mxCell>
        <mxCell id="RjiiJJ7MbWjU7pn0RQHx-52" value="" style="endArrow=none;html=1;rounded=0;exitX=0.5;exitY=1;exitDx=0;exitDy=0;entryX=0.5;entryY=0;entryDx=0;entryDy=0;" parent="RjiiJJ7MbWjU7pn0RQHx-1" source="RjiiJJ7MbWjU7pn0RQHx-46" target="RjiiJJ7MbWjU7pn0RQHx-45" edge="1">
          <mxGeometry relative="1" as="geometry">
            <mxPoint x="145" y="340" as="sourcePoint" />
            <mxPoint x="151" y="420" as="targetPoint" />
          </mxGeometry>
        </mxCell>
        <mxCell id="RjiiJJ7MbWjU7pn0RQHx-54" value="CAN LAND" style="shape=rhombus;perimeter=rhombusPerimeter;whiteSpace=wrap;html=1;align=center;" parent="RjiiJJ7MbWjU7pn0RQHx-1" vertex="1">
          <mxGeometry x="80" y="240" width="100" height="50" as="geometry" />
        </mxCell>
        <mxCell id="RjiiJJ7MbWjU7pn0RQHx-55" value="" style="endArrow=none;html=1;rounded=0;exitX=0.5;exitY=1;exitDx=0;exitDy=0;" parent="RjiiJJ7MbWjU7pn0RQHx-1" source="RjiiJJ7MbWjU7pn0RQHx-54" edge="1">
          <mxGeometry relative="1" as="geometry">
            <mxPoint x="130" y="290" as="sourcePoint" />
            <mxPoint x="130" y="400" as="targetPoint" />
          </mxGeometry>
        </mxCell>
        <mxCell id="RjiiJJ7MbWjU7pn0RQHx-58" value="" style="endArrow=none;html=1;rounded=0;entryX=0.5;entryY=0;entryDx=0;entryDy=0;" parent="RjiiJJ7MbWjU7pn0RQHx-1" target="RjiiJJ7MbWjU7pn0RQHx-54" edge="1">
          <mxGeometry relative="1" as="geometry">
            <mxPoint x="129" y="180" as="sourcePoint" />
            <mxPoint x="129" y="250" as="targetPoint" />
          </mxGeometry>
        </mxCell>
        <mxCell id="RjiiJJ7MbWjU7pn0RQHx-60" value="Airplane" style="whiteSpace=wrap;html=1;align=center;" parent="RjiiJJ7MbWjU7pn0RQHx-1" vertex="1">
          <mxGeometry x="90" y="630" width="100" height="40" as="geometry" />
        </mxCell>
        <mxCell id="RjiiJJ7MbWjU7pn0RQHx-61" value="airplaneID" style="ellipse;whiteSpace=wrap;html=1;align=center;fontStyle=4;" parent="RjiiJJ7MbWjU7pn0RQHx-1" vertex="1">
          <mxGeometry x="30" y="560" width="80" height="37" as="geometry" />
        </mxCell>
        <mxCell id="RjiiJJ7MbWjU7pn0RQHx-63" value="TYPE" style="shape=rhombus;perimeter=rhombusPerimeter;whiteSpace=wrap;html=1;align=center;" parent="RjiiJJ7MbWjU7pn0RQHx-1" vertex="1">
          <mxGeometry x="85" y="500" width="110" height="50" as="geometry" />
        </mxCell>
        <mxCell id="RjiiJJ7MbWjU7pn0RQHx-64" value="" style="endArrow=none;html=1;rounded=0;exitX=0.5;exitY=1;exitDx=0;exitDy=0;entryX=0.5;entryY=0;entryDx=0;entryDy=0;" parent="RjiiJJ7MbWjU7pn0RQHx-1" source="RjiiJJ7MbWjU7pn0RQHx-45" target="RjiiJJ7MbWjU7pn0RQHx-63" edge="1">
          <mxGeometry relative="1" as="geometry">
            <mxPoint x="139" y="440" as="sourcePoint" />
            <mxPoint x="139" y="550" as="targetPoint" />
          </mxGeometry>
        </mxCell>
        <mxCell id="RjiiJJ7MbWjU7pn0RQHx-66" value="" style="endArrow=none;html=1;rounded=0;exitX=0.5;exitY=1;exitDx=0;exitDy=0;entryX=0.5;entryY=0;entryDx=0;entryDy=0;" parent="RjiiJJ7MbWjU7pn0RQHx-1" target="RjiiJJ7MbWjU7pn0RQHx-60" edge="1">
          <mxGeometry relative="1" as="geometry">
            <mxPoint x="140" y="550" as="sourcePoint" />
            <mxPoint x="140" y="610" as="targetPoint" />
          </mxGeometry>
        </mxCell>
        <mxCell id="RjiiJJ7MbWjU7pn0RQHx-67" value="" style="endArrow=none;html=1;rounded=0;exitX=1;exitY=1;exitDx=0;exitDy=0;" parent="RjiiJJ7MbWjU7pn0RQHx-1" source="RjiiJJ7MbWjU7pn0RQHx-61" target="RjiiJJ7MbWjU7pn0RQHx-60" edge="1">
          <mxGeometry relative="1" as="geometry">
            <mxPoint x="100" y="610" as="sourcePoint" />
            <mxPoint x="69.5" y="670" as="targetPoint" />
          </mxGeometry>
        </mxCell>
        <mxCell id="RjiiJJ7MbWjU7pn0RQHx-68" value="numberOfSeats" style="ellipse;whiteSpace=wrap;html=1;align=center;" parent="RjiiJJ7MbWjU7pn0RQHx-1" vertex="1">
          <mxGeometry x="160" y="557" width="100" height="40" as="geometry" />
        </mxCell>
        <mxCell id="RjiiJJ7MbWjU7pn0RQHx-69" value="" style="endArrow=none;html=1;rounded=0;exitX=0;exitY=1;exitDx=0;exitDy=0;entryX=0.63;entryY=0.025;entryDx=0;entryDy=0;entryPerimeter=0;" parent="RjiiJJ7MbWjU7pn0RQHx-1" source="RjiiJJ7MbWjU7pn0RQHx-68" target="RjiiJJ7MbWjU7pn0RQHx-60" edge="1">
          <mxGeometry relative="1" as="geometry">
            <mxPoint x="150" y="560" as="sourcePoint" />
            <mxPoint x="150" y="640" as="targetPoint" />
          </mxGeometry>
        </mxCell>
        <mxCell id="RjiiJJ7MbWjU7pn0RQHx-70" value="Flight" style="whiteSpace=wrap;html=1;align=center;" parent="RjiiJJ7MbWjU7pn0RQHx-1" vertex="1">
          <mxGeometry x="590" y="400" width="100" height="40" as="geometry" />
        </mxCell>
        <mxCell id="RjiiJJ7MbWjU7pn0RQHx-71" value="airline" style="ellipse;whiteSpace=wrap;html=1;align=center;" parent="RjiiJJ7MbWjU7pn0RQHx-1" vertex="1">
          <mxGeometry x="540" y="320" width="70" height="40" as="geometry" />
        </mxCell>
        <mxCell id="RjiiJJ7MbWjU7pn0RQHx-72" value="number" style="ellipse;whiteSpace=wrap;html=1;align=center;fontStyle=4;" parent="RjiiJJ7MbWjU7pn0RQHx-1" vertex="1">
          <mxGeometry x="490" y="370" width="80" height="40" as="geometry" />
        </mxCell>
        <mxCell id="RjiiJJ7MbWjU7pn0RQHx-73" value="weekdays" style="ellipse;whiteSpace=wrap;html=1;align=center;" parent="RjiiJJ7MbWjU7pn0RQHx-1" vertex="1">
          <mxGeometry x="690" y="320" width="70" height="40" as="geometry" />
        </mxCell>
        <mxCell id="RjiiJJ7MbWjU7pn0RQHx-74" value="FlightLeg" style="shape=ext;margin=3;double=1;whiteSpace=wrap;html=1;align=center;" parent="RjiiJJ7MbWjU7pn0RQHx-1" vertex="1">
          <mxGeometry x="580" y="140" width="100" height="40" as="geometry" />
        </mxCell>
        <mxCell id="RjiiJJ7MbWjU7pn0RQHx-76" value="" style="endArrow=none;html=1;rounded=0;exitX=0.5;exitY=1;exitDx=0;exitDy=0;entryX=0.5;entryY=0;entryDx=0;entryDy=0;" parent="RjiiJJ7MbWjU7pn0RQHx-1" source="RjiiJJ7MbWjU7pn0RQHx-74" target="RjiiJJ7MbWjU7pn0RQHx-78" edge="1">
          <mxGeometry relative="1" as="geometry">
            <mxPoint x="570" y="250" as="sourcePoint" />
            <mxPoint x="630" y="220" as="targetPoint" />
          </mxGeometry>
        </mxCell>
        <mxCell id="RjiiJJ7MbWjU7pn0RQHx-78" value="LEGS" style="shape=rhombus;double=1;perimeter=rhombusPerimeter;whiteSpace=wrap;html=1;align=center;" parent="RjiiJJ7MbWjU7pn0RQHx-1" vertex="1">
          <mxGeometry x="585" y="240" width="90" height="60" as="geometry" />
        </mxCell>
        <mxCell id="RjiiJJ7MbWjU7pn0RQHx-80" value="" style="endArrow=none;html=1;rounded=0;exitX=0.5;exitY=1;exitDx=0;exitDy=0;" parent="RjiiJJ7MbWjU7pn0RQHx-1" source="RjiiJJ7MbWjU7pn0RQHx-78" edge="1">
          <mxGeometry relative="1" as="geometry">
            <mxPoint x="629.5" y="300" as="sourcePoint" />
            <mxPoint x="633" y="400" as="targetPoint" />
          </mxGeometry>
        </mxCell>
        <mxCell id="RjiiJJ7MbWjU7pn0RQHx-81" value="" style="endArrow=none;html=1;rounded=0;entryX=0;entryY=0.75;entryDx=0;entryDy=0;" parent="RjiiJJ7MbWjU7pn0RQHx-1" source="RjiiJJ7MbWjU7pn0RQHx-72" target="RjiiJJ7MbWjU7pn0RQHx-70" edge="1">
          <mxGeometry relative="1" as="geometry">
            <mxPoint x="300" y="260" as="sourcePoint" />
            <mxPoint x="460" y="260" as="targetPoint" />
          </mxGeometry>
        </mxCell>
        <mxCell id="RjiiJJ7MbWjU7pn0RQHx-82" value="" style="endArrow=none;html=1;rounded=0;entryX=0.07;entryY=0.025;entryDx=0;entryDy=0;exitX=0.729;exitY=0.95;exitDx=0;exitDy=0;exitPerimeter=0;entryPerimeter=0;" parent="RjiiJJ7MbWjU7pn0RQHx-1" source="RjiiJJ7MbWjU7pn0RQHx-71" target="RjiiJJ7MbWjU7pn0RQHx-70" edge="1">
          <mxGeometry relative="1" as="geometry">
            <mxPoint x="563.9999999999911" y="415.9999999999941" as="sourcePoint" />
            <mxPoint x="600" y="440" as="targetPoint" />
          </mxGeometry>
        </mxCell>
        <mxCell id="RjiiJJ7MbWjU7pn0RQHx-83" value="" style="endArrow=none;html=1;rounded=0;exitX=0;exitY=1;exitDx=0;exitDy=0;" parent="RjiiJJ7MbWjU7pn0RQHx-1" source="RjiiJJ7MbWjU7pn0RQHx-73" edge="1">
          <mxGeometry relative="1" as="geometry">
            <mxPoint x="573.9999999999911" y="425.9999999999941" as="sourcePoint" />
            <mxPoint x="650" y="400" as="targetPoint" />
          </mxGeometry>
        </mxCell>
        <mxCell id="RjiiJJ7MbWjU7pn0RQHx-84" value="LegInstance" style="shape=ext;margin=3;double=1;whiteSpace=wrap;html=1;align=center;" parent="RjiiJJ7MbWjU7pn0RQHx-1" vertex="1">
          <mxGeometry x="580" y="630" width="100" height="40" as="geometry" />
        </mxCell>
        <mxCell id="RjiiJJ7MbWjU7pn0RQHx-87" value="ArrivalAirport" style="shape=rhombus;perimeter=rhombusPerimeter;whiteSpace=wrap;html=1;align=center;" parent="RjiiJJ7MbWjU7pn0RQHx-1" vertex="1">
          <mxGeometry x="320" y="160" width="120" height="60" as="geometry" />
        </mxCell>
        <mxCell id="RjiiJJ7MbWjU7pn0RQHx-88" value="DepartureAirport" style="shape=rhombus;perimeter=rhombusPerimeter;whiteSpace=wrap;html=1;align=center;" parent="RjiiJJ7MbWjU7pn0RQHx-1" vertex="1">
          <mxGeometry x="320" y="50" width="120" height="60" as="geometry" />
        </mxCell>
        <mxCell id="RjiiJJ7MbWjU7pn0RQHx-89" value="departureTime&lt;span style=&quot;color: rgba(0 , 0 , 0 , 0) ; font-family: monospace ; font-size: 0px&quot;&gt;%3CmxGraphModel%3E%3Croot%3E%3CmxCell%20id%3D%220%22%2F%3E%3CmxCell%20id%3D%221%22%20parent%3D%220%22%2F%3E%3CmxCell%20id%3D%222%22%20value%3D%22%22%20style%3D%22endArrow%3Dnone%3Bhtml%3D1%3Brounded%3D0%3BentryX%3D0%3BentryY%3D0.75%3BentryDx%3D0%3BentryDy%3D0%3B%22%20edge%3D%221%22%20parent%3D%221%22%3E%3CmxGeometry%20relative%3D%221%22%20as%3D%22geometry%22%3E%3CmxPoint%20x%3D%22553.9999999999911%22%20y%3D%22405.9999999999941%22%20as%3D%22sourcePoint%22%2F%3E%3CmxPoint%20x%3D%22590%22%20y%3D%22430%22%20as%3D%22targetPoint%22%2F%3E%3C%2FmxGeometry%3E%3C%2FmxCell%3E%3C%2Froot%3E%3C%2FmxGraphModel%3E&lt;/span&gt;" style="ellipse;whiteSpace=wrap;html=1;align=center;" parent="RjiiJJ7MbWjU7pn0RQHx-1" vertex="1">
          <mxGeometry x="430" y="10" width="100" height="40" as="geometry" />
        </mxCell>
        <mxCell id="RjiiJJ7MbWjU7pn0RQHx-91" value="arrivalTime" style="ellipse;whiteSpace=wrap;html=1;align=center;" parent="RjiiJJ7MbWjU7pn0RQHx-1" vertex="1">
          <mxGeometry x="430" y="120" width="100" height="40" as="geometry" />
        </mxCell>
        <mxCell id="RjiiJJ7MbWjU7pn0RQHx-93" value="" style="endArrow=none;html=1;rounded=0;exitX=1;exitY=0.25;exitDx=0;exitDy=0;entryX=0;entryY=0.5;entryDx=0;entryDy=0;" parent="RjiiJJ7MbWjU7pn0RQHx-1" source="RjiiJJ7MbWjU7pn0RQHx-32" target="RjiiJJ7MbWjU7pn0RQHx-88" edge="1">
          <mxGeometry relative="1" as="geometry">
            <mxPoint x="300" y="280" as="sourcePoint" />
            <mxPoint x="460" y="280" as="targetPoint" />
          </mxGeometry>
        </mxCell>
        <mxCell id="RjiiJJ7MbWjU7pn0RQHx-94" value="1" style="resizable=0;html=1;align=right;verticalAlign=bottom;" parent="RjiiJJ7MbWjU7pn0RQHx-93" connectable="0" vertex="1">
          <mxGeometry x="1" relative="1" as="geometry" />
        </mxCell>
        <mxCell id="RjiiJJ7MbWjU7pn0RQHx-95" value="" style="endArrow=none;html=1;rounded=0;exitX=1;exitY=0.5;exitDx=0;exitDy=0;entryX=0;entryY=0.5;entryDx=0;entryDy=0;" parent="RjiiJJ7MbWjU7pn0RQHx-1" source="RjiiJJ7MbWjU7pn0RQHx-32" target="RjiiJJ7MbWjU7pn0RQHx-87" edge="1">
          <mxGeometry relative="1" as="geometry">
            <mxPoint x="190" y="160" as="sourcePoint" />
            <mxPoint x="330" y="90" as="targetPoint" />
          </mxGeometry>
        </mxCell>
        <mxCell id="RjiiJJ7MbWjU7pn0RQHx-96" value="1" style="resizable=0;html=1;align=right;verticalAlign=bottom;" parent="RjiiJJ7MbWjU7pn0RQHx-95" connectable="0" vertex="1">
          <mxGeometry x="1" relative="1" as="geometry" />
        </mxCell>
        <mxCell id="RjiiJJ7MbWjU7pn0RQHx-98" value="" style="endArrow=none;html=1;rounded=0;exitX=1;exitY=0;exitDx=0;exitDy=0;entryX=0.24;entryY=0.925;entryDx=0;entryDy=0;entryPerimeter=0;" parent="RjiiJJ7MbWjU7pn0RQHx-1" source="RjiiJJ7MbWjU7pn0RQHx-88" target="RjiiJJ7MbWjU7pn0RQHx-89" edge="1">
          <mxGeometry relative="1" as="geometry">
            <mxPoint x="300" y="280" as="sourcePoint" />
            <mxPoint x="460" y="280" as="targetPoint" />
          </mxGeometry>
        </mxCell>
        <mxCell id="RjiiJJ7MbWjU7pn0RQHx-99" value="" style="endArrow=none;html=1;rounded=0;exitX=1;exitY=0;exitDx=0;exitDy=0;entryX=0;entryY=1;entryDx=0;entryDy=0;" parent="RjiiJJ7MbWjU7pn0RQHx-1" source="RjiiJJ7MbWjU7pn0RQHx-87" target="RjiiJJ7MbWjU7pn0RQHx-91" edge="1">
          <mxGeometry relative="1" as="geometry">
            <mxPoint x="420" y="75" as="sourcePoint" />
            <mxPoint x="464" y="57" as="targetPoint" />
          </mxGeometry>
        </mxCell>
        <mxCell id="RjiiJJ7MbWjU7pn0RQHx-100" value="" style="shape=link;html=1;rounded=0;exitX=1;exitY=0.5;exitDx=0;exitDy=0;entryX=0;entryY=0;entryDx=0;entryDy=0;" parent="RjiiJJ7MbWjU7pn0RQHx-1" source="RjiiJJ7MbWjU7pn0RQHx-88" target="RjiiJJ7MbWjU7pn0RQHx-74" edge="1">
          <mxGeometry relative="1" as="geometry">
            <mxPoint x="300" y="130" as="sourcePoint" />
            <mxPoint x="460" y="130" as="targetPoint" />
          </mxGeometry>
        </mxCell>
        <mxCell id="RjiiJJ7MbWjU7pn0RQHx-101" value="1" style="resizable=0;html=1;align=right;verticalAlign=bottom;" parent="RjiiJJ7MbWjU7pn0RQHx-100" connectable="0" vertex="1">
          <mxGeometry x="1" relative="1" as="geometry" />
        </mxCell>
        <mxCell id="RjiiJJ7MbWjU7pn0RQHx-102" value="" style="shape=link;html=1;rounded=0;exitX=1;exitY=0.5;exitDx=0;exitDy=0;entryX=0;entryY=0.75;entryDx=0;entryDy=0;" parent="RjiiJJ7MbWjU7pn0RQHx-1" source="RjiiJJ7MbWjU7pn0RQHx-87" target="RjiiJJ7MbWjU7pn0RQHx-74" edge="1">
          <mxGeometry relative="1" as="geometry">
            <mxPoint x="450" y="90" as="sourcePoint" />
            <mxPoint x="590" y="150" as="targetPoint" />
          </mxGeometry>
        </mxCell>
        <mxCell id="RjiiJJ7MbWjU7pn0RQHx-103" value="1" style="resizable=0;html=1;align=right;verticalAlign=bottom;" parent="RjiiJJ7MbWjU7pn0RQHx-102" connectable="0" vertex="1">
          <mxGeometry x="1" relative="1" as="geometry" />
        </mxCell>
        <mxCell id="RjiiJJ7MbWjU7pn0RQHx-104" value="" style="endArrow=none;html=1;rounded=0;exitX=0.29;exitY=1;exitDx=0;exitDy=0;exitPerimeter=0;entryX=0.75;entryY=0;entryDx=0;entryDy=0;" parent="RjiiJJ7MbWjU7pn0RQHx-1" target="RjiiJJ7MbWjU7pn0RQHx-74" edge="1">
          <mxGeometry relative="1" as="geometry">
            <mxPoint x="679" y="100" as="sourcePoint" />
            <mxPoint x="115" y="150" as="targetPoint" />
          </mxGeometry>
        </mxCell>
        <mxCell id="RjiiJJ7MbWjU7pn0RQHx-105" value="&lt;span style=&quot;border-bottom: 1px dotted&quot;&gt;legNumber&lt;/span&gt;" style="ellipse;whiteSpace=wrap;html=1;align=center;gradientColor=none;" parent="RjiiJJ7MbWjU7pn0RQHx-1" vertex="1">
          <mxGeometry x="640" y="60" width="100" height="40" as="geometry" />
        </mxCell>
        <mxCell id="RjiiJJ7MbWjU7pn0RQHx-109" value="&lt;span style=&quot;border-bottom: 1px dotted&quot;&gt;date&lt;/span&gt;" style="ellipse;whiteSpace=wrap;html=1;align=center;gradientColor=none;" parent="RjiiJJ7MbWjU7pn0RQHx-1" vertex="1">
          <mxGeometry x="640" y="570" width="50" height="30" as="geometry" />
        </mxCell>
        <mxCell id="RjiiJJ7MbWjU7pn0RQHx-110" value="no.of-avai seats" style="ellipse;whiteSpace=wrap;html=1;align=center;gradientColor=none;" parent="RjiiJJ7MbWjU7pn0RQHx-1" vertex="1">
          <mxGeometry x="650" y="710" width="100" height="40" as="geometry" />
        </mxCell>
        <mxCell id="RjiiJJ7MbWjU7pn0RQHx-111" value="" style="endArrow=none;html=1;rounded=0;entryX=0.5;entryY=0;entryDx=0;entryDy=0;exitX=0;exitY=1;exitDx=0;exitDy=0;" parent="RjiiJJ7MbWjU7pn0RQHx-1" source="RjiiJJ7MbWjU7pn0RQHx-109" target="RjiiJJ7MbWjU7pn0RQHx-84" edge="1">
          <mxGeometry relative="1" as="geometry">
            <mxPoint x="601.03" y="368" as="sourcePoint" />
            <mxPoint x="607" y="411" as="targetPoint" />
            <Array as="points">
              <mxPoint x="630" y="630" />
            </Array>
          </mxGeometry>
        </mxCell>
        <mxCell id="RjiiJJ7MbWjU7pn0RQHx-113" value="" style="endArrow=none;html=1;rounded=0;exitX=0.5;exitY=0;exitDx=0;exitDy=0;" parent="RjiiJJ7MbWjU7pn0RQHx-1" source="RjiiJJ7MbWjU7pn0RQHx-110" edge="1">
          <mxGeometry relative="1" as="geometry">
            <mxPoint x="300" y="560" as="sourcePoint" />
            <mxPoint x="630" y="670" as="targetPoint" />
          </mxGeometry>
        </mxCell>
        <mxCell id="RjiiJJ7MbWjU7pn0RQHx-114" value="Assigned" style="shape=rhombus;perimeter=rhombusPerimeter;whiteSpace=wrap;html=1;align=center;gradientColor=none;" parent="RjiiJJ7MbWjU7pn0RQHx-1" vertex="1">
          <mxGeometry x="330" y="620" width="120" height="60" as="geometry" />
        </mxCell>
        <mxCell id="RjiiJJ7MbWjU7pn0RQHx-115" value="" style="endArrow=none;html=1;rounded=0;exitX=1;exitY=0.5;exitDx=0;exitDy=0;entryX=0;entryY=0.5;entryDx=0;entryDy=0;" parent="RjiiJJ7MbWjU7pn0RQHx-1" source="RjiiJJ7MbWjU7pn0RQHx-60" target="RjiiJJ7MbWjU7pn0RQHx-114" edge="1">
          <mxGeometry relative="1" as="geometry">
            <mxPoint x="300" y="540" as="sourcePoint" />
            <mxPoint x="460" y="540" as="targetPoint" />
          </mxGeometry>
        </mxCell>
        <mxCell id="RjiiJJ7MbWjU7pn0RQHx-116" value="1" style="resizable=0;html=1;align=right;verticalAlign=bottom;" parent="RjiiJJ7MbWjU7pn0RQHx-115" connectable="0" vertex="1">
          <mxGeometry x="1" relative="1" as="geometry" />
        </mxCell>
        <mxCell id="RjiiJJ7MbWjU7pn0RQHx-117" value="" style="shape=link;html=1;rounded=0;entryX=0;entryY=0.5;entryDx=0;entryDy=0;" parent="RjiiJJ7MbWjU7pn0RQHx-1" target="RjiiJJ7MbWjU7pn0RQHx-84" edge="1">
          <mxGeometry relative="1" as="geometry">
            <mxPoint x="450" y="649.5" as="sourcePoint" />
            <mxPoint x="570" y="650" as="targetPoint" />
          </mxGeometry>
        </mxCell>
        <mxCell id="RjiiJJ7MbWjU7pn0RQHx-118" value="1" style="resizable=0;html=1;align=right;verticalAlign=bottom;" parent="RjiiJJ7MbWjU7pn0RQHx-117" connectable="0" vertex="1">
          <mxGeometry x="1" relative="1" as="geometry" />
        </mxCell>
        <mxCell id="RjiiJJ7MbWjU7pn0RQHx-119" value="Reservation" style="shape=rhombus;double=1;perimeter=rhombusPerimeter;whiteSpace=wrap;html=1;align=center;gradientColor=none;" parent="RjiiJJ7MbWjU7pn0RQHx-1" vertex="1">
          <mxGeometry x="470" y="740" width="120" height="60" as="geometry" />
        </mxCell>
        <mxCell id="RjiiJJ7MbWjU7pn0RQHx-122" value="" style="endArrow=none;html=1;rounded=0;entryX=1;entryY=0;entryDx=0;entryDy=0;exitX=0.25;exitY=1;exitDx=0;exitDy=0;" parent="RjiiJJ7MbWjU7pn0RQHx-1" source="RjiiJJ7MbWjU7pn0RQHx-84" target="RjiiJJ7MbWjU7pn0RQHx-119" edge="1">
          <mxGeometry relative="1" as="geometry">
            <mxPoint x="300" y="660" as="sourcePoint" />
            <mxPoint x="460" y="660" as="targetPoint" />
          </mxGeometry>
        </mxCell>
        <mxCell id="RjiiJJ7MbWjU7pn0RQHx-123" value="1" style="resizable=0;html=1;align=right;verticalAlign=bottom;" parent="RjiiJJ7MbWjU7pn0RQHx-122" connectable="0" vertex="1">
          <mxGeometry x="1" relative="1" as="geometry" />
        </mxCell>
        <mxCell id="RjiiJJ7MbWjU7pn0RQHx-124" value="customerName" style="ellipse;whiteSpace=wrap;html=1;align=center;gradientColor=none;" parent="RjiiJJ7MbWjU7pn0RQHx-1" vertex="1">
          <mxGeometry x="414" y="690" width="100" height="30" as="geometry" />
        </mxCell>
        <mxCell id="RjiiJJ7MbWjU7pn0RQHx-125" value="phone" style="ellipse;whiteSpace=wrap;html=1;align=center;gradientColor=none;" parent="RjiiJJ7MbWjU7pn0RQHx-1" vertex="1">
          <mxGeometry x="570" y="800" width="66" height="40" as="geometry" />
        </mxCell>
        <mxCell id="RjiiJJ7MbWjU7pn0RQHx-127" value="&lt;span style=&quot;border-bottom: 1px dotted&quot;&gt;seatNumber&lt;/span&gt;" style="ellipse;whiteSpace=wrap;html=1;align=center;gradientColor=none;" parent="RjiiJJ7MbWjU7pn0RQHx-1" vertex="1">
          <mxGeometry x="430" y="830" width="100" height="40" as="geometry" />
        </mxCell>
        <mxCell id="RjiiJJ7MbWjU7pn0RQHx-128" value="" style="endArrow=none;html=1;rounded=0;exitX=0.5;exitY=1;exitDx=0;exitDy=0;entryX=0;entryY=0;entryDx=0;entryDy=0;" parent="RjiiJJ7MbWjU7pn0RQHx-1" source="RjiiJJ7MbWjU7pn0RQHx-124" target="RjiiJJ7MbWjU7pn0RQHx-119" edge="1">
          <mxGeometry relative="1" as="geometry">
            <mxPoint x="300" y="660" as="sourcePoint" />
            <mxPoint x="460" y="660" as="targetPoint" />
          </mxGeometry>
        </mxCell>
        <mxCell id="RjiiJJ7MbWjU7pn0RQHx-130" value="" style="endArrow=none;html=1;rounded=0;exitX=1;exitY=1;exitDx=0;exitDy=0;" parent="RjiiJJ7MbWjU7pn0RQHx-1" source="RjiiJJ7MbWjU7pn0RQHx-119" target="RjiiJJ7MbWjU7pn0RQHx-125" edge="1">
          <mxGeometry relative="1" as="geometry">
            <mxPoint x="300" y="660" as="sourcePoint" />
            <mxPoint x="460" y="660" as="targetPoint" />
          </mxGeometry>
        </mxCell>
        <mxCell id="RjiiJJ7MbWjU7pn0RQHx-131" value="Seat" style="shape=ext;margin=3;double=1;whiteSpace=wrap;html=1;align=center;gradientColor=none;" parent="RjiiJJ7MbWjU7pn0RQHx-1" vertex="1">
          <mxGeometry x="360" y="780" width="60" height="40" as="geometry" />
        </mxCell>
        <mxCell id="RjiiJJ7MbWjU7pn0RQHx-134" value="" style="shape=link;html=1;rounded=0;exitX=1;exitY=0.5;exitDx=0;exitDy=0;entryX=0.083;entryY=0.6;entryDx=0;entryDy=0;entryPerimeter=0;" parent="RjiiJJ7MbWjU7pn0RQHx-1" source="RjiiJJ7MbWjU7pn0RQHx-131" target="RjiiJJ7MbWjU7pn0RQHx-119" edge="1">
          <mxGeometry relative="1" as="geometry">
            <mxPoint x="300" y="660" as="sourcePoint" />
            <mxPoint x="460" y="660" as="targetPoint" />
          </mxGeometry>
        </mxCell>
        <mxCell id="RjiiJJ7MbWjU7pn0RQHx-135" value="1" style="resizable=0;html=1;align=right;verticalAlign=bottom;" parent="RjiiJJ7MbWjU7pn0RQHx-134" connectable="0" vertex="1">
          <mxGeometry x="1" relative="1" as="geometry" />
        </mxCell>
        <mxCell id="RjiiJJ7MbWjU7pn0RQHx-136" value="" style="endArrow=none;html=1;rounded=0;exitX=0.5;exitY=1;exitDx=0;exitDy=0;entryX=0;entryY=0;entryDx=0;entryDy=0;" parent="RjiiJJ7MbWjU7pn0RQHx-1" source="RjiiJJ7MbWjU7pn0RQHx-131" target="RjiiJJ7MbWjU7pn0RQHx-127" edge="1">
          <mxGeometry relative="1" as="geometry">
            <mxPoint x="300" y="660" as="sourcePoint" />
            <mxPoint x="460" y="660" as="targetPoint" />
          </mxGeometry>
        </mxCell>
        <mxCell id="exah4lvaIuJgvuUFDAqe-0" value="Departs" style="shape=rhombus;perimeter=rhombusPerimeter;whiteSpace=wrap;html=1;align=center;" vertex="1" parent="RjiiJJ7MbWjU7pn0RQHx-1">
          <mxGeometry x="340" y="360" width="100" height="40" as="geometry" />
        </mxCell>
        <mxCell id="exah4lvaIuJgvuUFDAqe-1" value="Arrive" style="shape=rhombus;perimeter=rhombusPerimeter;whiteSpace=wrap;html=1;align=center;" vertex="1" parent="RjiiJJ7MbWjU7pn0RQHx-1">
          <mxGeometry x="345" y="430" width="90" height="40" as="geometry" />
        </mxCell>
        <mxCell id="exah4lvaIuJgvuUFDAqe-2" value="" style="endArrow=none;html=1;rounded=0;exitX=1;exitY=0.75;exitDx=0;exitDy=0;entryX=0.36;entryY=0.175;entryDx=0;entryDy=0;entryPerimeter=0;" edge="1" parent="RjiiJJ7MbWjU7pn0RQHx-1" source="RjiiJJ7MbWjU7pn0RQHx-32" target="exah4lvaIuJgvuUFDAqe-0">
          <mxGeometry relative="1" as="geometry">
            <mxPoint x="190" y="170" as="sourcePoint" />
            <mxPoint x="330" y="200" as="targetPoint" />
          </mxGeometry>
        </mxCell>
        <mxCell id="exah4lvaIuJgvuUFDAqe-3" value="1" style="resizable=0;html=1;align=right;verticalAlign=bottom;" connectable="0" vertex="1" parent="exah4lvaIuJgvuUFDAqe-2">
          <mxGeometry x="1" relative="1" as="geometry" />
        </mxCell>
        <mxCell id="exah4lvaIuJgvuUFDAqe-4" value="" style="endArrow=none;html=1;rounded=0;exitX=0.87;exitY=1.025;exitDx=0;exitDy=0;entryX=0.078;entryY=0.425;entryDx=0;entryDy=0;exitPerimeter=0;entryPerimeter=0;" edge="1" parent="RjiiJJ7MbWjU7pn0RQHx-1" source="RjiiJJ7MbWjU7pn0RQHx-32" target="exah4lvaIuJgvuUFDAqe-1">
          <mxGeometry relative="1" as="geometry">
            <mxPoint x="200" y="180" as="sourcePoint" />
            <mxPoint x="340" y="210" as="targetPoint" />
          </mxGeometry>
        </mxCell>
        <mxCell id="exah4lvaIuJgvuUFDAqe-5" value="1" style="resizable=0;html=1;align=right;verticalAlign=bottom;" connectable="0" vertex="1" parent="exah4lvaIuJgvuUFDAqe-4">
          <mxGeometry x="1" relative="1" as="geometry" />
        </mxCell>
        <mxCell id="exah4lvaIuJgvuUFDAqe-6" value="depTime" style="ellipse;whiteSpace=wrap;html=1;align=center;gradientColor=none;" vertex="1" parent="RjiiJJ7MbWjU7pn0RQHx-1">
          <mxGeometry x="400" y="300" width="80" height="30" as="geometry" />
        </mxCell>
        <mxCell id="exah4lvaIuJgvuUFDAqe-7" value="arrTime" style="ellipse;whiteSpace=wrap;html=1;align=center;gradientColor=none;" vertex="1" parent="RjiiJJ7MbWjU7pn0RQHx-1">
          <mxGeometry x="260" y="490" width="80" height="30" as="geometry" />
        </mxCell>
        <mxCell id="exah4lvaIuJgvuUFDAqe-8" value="" style="endArrow=none;html=1;rounded=0;exitX=0.663;exitY=0;exitDx=0;exitDy=0;exitPerimeter=0;entryX=0;entryY=1;entryDx=0;entryDy=0;" edge="1" parent="RjiiJJ7MbWjU7pn0RQHx-1" source="exah4lvaIuJgvuUFDAqe-7" target="exah4lvaIuJgvuUFDAqe-1">
          <mxGeometry relative="1" as="geometry">
            <mxPoint x="320" y="410" as="sourcePoint" />
            <mxPoint x="480" y="410" as="targetPoint" />
          </mxGeometry>
        </mxCell>
        <mxCell id="exah4lvaIuJgvuUFDAqe-9" value="" style="endArrow=none;html=1;rounded=0;" edge="1" parent="RjiiJJ7MbWjU7pn0RQHx-1" target="exah4lvaIuJgvuUFDAqe-6">
          <mxGeometry relative="1" as="geometry">
            <mxPoint x="413" y="370" as="sourcePoint" />
            <mxPoint x="467.23" y="345" as="targetPoint" />
          </mxGeometry>
        </mxCell>
        <mxCell id="exah4lvaIuJgvuUFDAqe-10" value="" style="endArrow=none;html=1;rounded=0;exitX=0.5;exitY=1;exitDx=0;exitDy=0;entryX=0;entryY=0;entryDx=0;entryDy=0;" edge="1" parent="RjiiJJ7MbWjU7pn0RQHx-1" source="exah4lvaIuJgvuUFDAqe-1" target="RjiiJJ7MbWjU7pn0RQHx-84">
          <mxGeometry relative="1" as="geometry">
            <mxPoint x="320" y="410" as="sourcePoint" />
            <mxPoint x="480" y="410" as="targetPoint" />
          </mxGeometry>
        </mxCell>
        <mxCell id="exah4lvaIuJgvuUFDAqe-11" value="" style="endArrow=none;html=1;rounded=0;exitX=0.5;exitY=1;exitDx=0;exitDy=0;entryX=0.25;entryY=0;entryDx=0;entryDy=0;" edge="1" parent="RjiiJJ7MbWjU7pn0RQHx-1" target="RjiiJJ7MbWjU7pn0RQHx-84">
          <mxGeometry relative="1" as="geometry">
            <mxPoint x="414" y="390" as="sourcePoint" />
            <mxPoint x="604" y="550" as="targetPoint" />
          </mxGeometry>
        </mxCell>
        <mxCell id="exah4lvaIuJgvuUFDAqe-13" value="instance of&amp;nbsp;" style="shape=rhombus;double=1;perimeter=rhombusPerimeter;whiteSpace=wrap;html=1;align=center;gradientColor=none;" vertex="1" parent="RjiiJJ7MbWjU7pn0RQHx-1">
          <mxGeometry x="450" y="230" width="100" height="50" as="geometry" />
        </mxCell>
        <mxCell id="exah4lvaIuJgvuUFDAqe-14" value="" style="shape=link;html=1;rounded=0;entryX=0.39;entryY=-0.05;entryDx=0;entryDy=0;entryPerimeter=0;exitX=0.5;exitY=1;exitDx=0;exitDy=0;width=4;" edge="1" parent="RjiiJJ7MbWjU7pn0RQHx-1" source="exah4lvaIuJgvuUFDAqe-13" target="RjiiJJ7MbWjU7pn0RQHx-84">
          <mxGeometry relative="1" as="geometry">
            <mxPoint x="320" y="440" as="sourcePoint" />
            <mxPoint x="480" y="440" as="targetPoint" />
          </mxGeometry>
        </mxCell>
        <mxCell id="exah4lvaIuJgvuUFDAqe-15" value="1" style="resizable=0;html=1;align=right;verticalAlign=bottom;" connectable="0" vertex="1" parent="exah4lvaIuJgvuUFDAqe-14">
          <mxGeometry x="1" relative="1" as="geometry" />
        </mxCell>
        <mxCell id="exah4lvaIuJgvuUFDAqe-17" value="" style="endArrow=none;html=1;rounded=0;entryX=0.25;entryY=1;entryDx=0;entryDy=0;exitX=1;exitY=0;exitDx=0;exitDy=0;" edge="1" parent="RjiiJJ7MbWjU7pn0RQHx-1" source="exah4lvaIuJgvuUFDAqe-13" target="RjiiJJ7MbWjU7pn0RQHx-74">
          <mxGeometry relative="1" as="geometry">
            <mxPoint x="320" y="370" as="sourcePoint" />
            <mxPoint x="480" y="370" as="targetPoint" />
          </mxGeometry>
        </mxCell>
      </root>
    </mxGraphModel>
  </diagram>
</mxfile>
